<svg xmlns="http://www.w3.org/2000/svg" xmlns:xlink="http://www.w3.org/1999/xlink" version="1.1" x="0px" y="0px" viewBox="0 0 100 125" enable-background="new 0 0 100 100" xml:space="preserve"><g><path d="M47.2,72.9h5.6c1.943,0,3.3-1.356,3.3-3.3v-30.8c0-1.119-0.781-1.9-1.899-1.9c-1.119,0-1.9,0.781-1.9,1.9v30.3h-4.6v-30.3   c0-1.119-0.781-1.9-1.9-1.9c-1.119,0-1.9,0.781-1.9,1.9v30.8C43.9,71.544,45.257,72.9,47.2,72.9z"/><path d="M80.8,38.301h-0.147C78.26,26.453,69.234,16.998,57.5,14.048v-3.247c0-3.364-2.736-6.101-6.1-6.101h-2.8   c-3.364,0-6.1,2.736-6.1,6.101v3.247c-11.735,2.95-20.76,12.405-23.152,24.253H19.2c-1.943,0-3.3,1.356-3.3,3.3v5.6   c0,1.943,1.357,3.301,3.3,3.301h0.127c0.235,1.617,0.48,3.113,0.887,4.6H19.2c-1.119,0-1.9,0.781-1.9,1.9   c0,1.118,0.781,1.899,1.9,1.899h1.998c1.438,5.25,3.201,10.161,4.276,13H24.8c-1.119,0-1.9,0.781-1.9,1.899   c0,1.119,0.781,1.9,1.9,1.9h2.042l0.984,2.459C31.457,89.053,39.539,95.3,50,95.3c10.468,0,18.342-6.085,22.172-17.134l0.863-2.466   h2.164c1.119,0,1.9-0.781,1.9-1.9c0-1.118-0.781-1.899-1.9-1.899h-0.675c1.372-3.659,2.892-8.432,4.138-13H80.8   c1.118,0,1.899-0.781,1.899-1.899c0-1.119-0.781-1.9-1.899-1.9h-1.052c0.34-1.478,0.676-3.001,0.923-4.6H80.8   c1.942,0,3.3-1.357,3.3-3.301v-5.6C84.1,39.657,82.742,38.301,80.8,38.301z M71.627,35.863l3.857-1.589   c1.07,2.689,2.016,5.802,2.016,10.126c0,7.085-3.007,16.515-4.6,21.014V43.001C72.9,40.685,72.506,38.466,71.627,35.863z    M26.061,30.839c0.778-1.436,1.841-2.904,3.23-4.465l2.551,2.662c-0.854,1.127-1.532,2.178-2.1,3.254L26.061,30.839z    M70.686,26.383c1.012,1.231,2.204,2.769,3.227,4.467l-3.657,1.441c-0.63-1.152-1.43-2.217-2.229-3.249L70.686,26.383z    M30.9,43.001C30.9,32.469,39.468,23.9,50,23.9c10.531,0,19.1,8.568,19.1,19.101V72.4c0,10.532-8.568,19.101-19.1,19.101   c-10.532,0-19.1-8.568-19.1-19.101V43.001z M65.53,26.203c-4.255-3.939-9.75-6.103-15.53-6.103s-11.276,2.163-15.53,6.103   L31.967,23.7c4.987-4.389,11.37-6.8,18.033-6.8c6.522,0,12.904,2.412,18.027,6.805L65.53,26.203z M53.7,13.328   c-1.216-0.119-2.462-0.228-3.7-0.228c-1.238,0-2.484,0.108-3.7,0.228v-2.527c0-1.269,1.032-2.301,2.3-2.301h2.8   c1.268,0,2.3,1.032,2.3,2.301V13.328z M28.228,35.861c-0.729,2.129-1.128,4.644-1.128,7.14v22.413   c-1.593-4.499-4.6-13.929-4.6-21.014c0-3.717,0.564-6.775,1.876-10.126L28.228,35.861z"/><path d="M62.6,61.7c3.963,0,6.1-3.335,6.1-4.699S66.562,52.3,62.6,52.3c-3.962,0-6.1,3.337-6.1,4.701S58.638,61.7,62.6,61.7z    M62.6,57.9c-0.562,0-0.899-0.336-0.899-0.899s0.337-0.9,0.899-0.9c0.564,0,0.9,0.337,0.9,0.9S63.164,57.9,62.6,57.9z"/><path d="M43.5,57.001c0-1.364-2.138-4.701-6.1-4.701c-3.962,0-6.1,3.337-6.1,4.701s2.138,4.699,6.1,4.699   C41.362,61.7,43.5,58.365,43.5,57.001z M37.4,57.9c-0.563,0-0.9-0.336-0.9-0.899s0.336-0.9,0.9-0.9s0.9,0.337,0.9,0.9   S37.963,57.9,37.4,57.9z"/><path d="M57,76.101H43c-1.119,0-1.9,0.781-1.9,1.9c0,1.118,0.781,1.899,1.9,1.899h14c1.119,0,1.9-0.781,1.9-1.899   C58.9,76.882,58.119,76.101,57,76.101z"/><path d="M52.8,81.7h-5.6c-1.119,0-1.9,0.781-1.9,1.9s0.781,1.9,1.9,1.9h5.6c1.119,0,1.9-0.781,1.9-1.9S53.919,81.7,52.8,81.7z"/></g><text x="0" y="115" fill="#000000" font-size="5px" font-weight="bold" font-family="'Helvetica Neue', Helvetica, Arial-Unicode, Arial, Sans-serif">Created by Yorlmar Campos</text><text x="0" y="120" fill="#000000" font-size="5px" font-weight="bold" font-family="'Helvetica Neue', Helvetica, Arial-Unicode, Arial, Sans-serif">from the Noun Project</text></svg>